<svg xmlns="http://www.w3.org/2000/svg" viewBox="0 0 48 48">
  <linearGradient id="brave-gradient" x1="0%" y1="0%" x2="0%" y2="100%">
    <stop offset="0%" style="stop-color:#FB542B"/>
    <stop offset="100%" style="stop-color:#343546"/>
  </linearGradient>
  <path d="M24 4L8 12v12c0 10 8 18 16 20 8-2 16-10 16-20V12L24 4z" fill="url(#brave-gradient)"/>
  <path d="M24 8L12 14v10c0 8 6 14 12 16 6-2 12-8 12-16V14L24 8z" fill="#FB542B"/>
  <path d="M24 14l-6 4v6c0 4 3 7 6 8 3-1 6-4 6-8v-6l-6-4z" fill="#fff"/>
</svg>
