<svg xmlns="http://www.w3.org/2000/svg" viewBox="0 0 48 48">
  <linearGradient id="edge-gradient" x1="0%" y1="0%" x2="100%" y2="100%">
    <stop offset="0%" style="stop-color:#0078D4"/>
    <stop offset="100%" style="stop-color:#00BCF2"/>
  </linearGradient>
  <circle cx="24" cy="24" r="20" fill="url(#edge-gradient)"/>
  <path d="M12 28c0-8 6-14 14-14 6 0 10 4 10 10 0 4-3 7-7 7H18c-3 0-6-1-6-3z" fill="#fff" opacity="0.9"/>
  <path d="M32 31c-2 2-5 3-8 3-7 0-12-5-12-12 0 8 6 14 14 14 4 0 7-2 9-5h-3z" fill="#50E6FF"/>
</svg>
